<svg
	xmlns="http://www.w3.org/2000/svg"
	width="128.14"
	height="164.11"
	style="font-size: 3.065019px; font-weight: bold; font-family: Helvetica; " >
<g><style type="text/css" >
<!-- create color definitions -->
<![CDATA[
text.red {fill: rgb(255, 0, 255); }
text.green {fill: rgb(0, 255, 0); }
text.blue {fill: rgb(0, 0, 255); }
text.black {fill: rgb(0, 0, 0); }
text.gray {fill: rgb(204, 204, 204); }
text.brown {fill: rgb(211.65, 104.55, 30.6); }
text {fill: rgb(0, 0, 0); text-anchor: middle; alignment-baseline: middle; }
circle.red {stroke: rgb(255, 0, 255); fill: none; }
circle.green {stroke: rgb(0, 255, 0); fill: none; }
circle.blue {stroke: rgb(0, 0, 255); fill: none; }
circle.black {stroke: rgb(0, 0, 0); fill: none; }
circle.gray {stroke: rgb(204, 204, 204); fill: none; }
circle.brown {stroke: rgb(211.65, 104.55, 30.6); fill: none; }
circle {stroke: rgb(0, 0, 0); }
line.red {stroke: rgb(255, 0, 255); stroke-width: 0.383127; }
line.green {stroke: rgb(0, 255, 0); stroke-width: 0.383127; }
line.blue {stroke: rgb(0, 0, 255); stroke-width: 0.383127; }
line.black {stroke: rgb(0, 0, 0); stroke-width: 0.383127; }
line.gray {stroke: rgb(204, 204, 204); stroke-width: 0.383127; }
line.brown {stroke: rgb(211.65, 104.55, 30.6); stroke-width: 0.383127; }
line {stroke: rgb(0, 0, 0); }
text.numbering-label {fill: rgb(204, 204, 204);}
line.numbering-line {stroke: rgb(204, 204, 204); stroke-width: 0.191564;}
line.predicted {stroke: rgb(0, 0, 0); stroke-dasharray: 2}
text.background {fill: rgb(255, 255, 255);
.template {visibility:hidden}
]]>
</style></g>
<g><title>0 (position.label in template: 0.5')</title><text x="54.63" y="114.11" class="green" >5'</text></g>
<g><title>1 (position.label in template: 20.A)</title><text x="61.63" y="114.11" class="black" >A</text></g>
<g><line x1="63.6733" y1="113.803" x2="71.6267" y2="113.803" class="black" /></g>
<g><title>2 (position.label in template: 21.G)</title><text x="61.22" y="106.55" class="black" >G</text></g>
<g><line x1="63.2633" y1="106.243" x2="71.6267" y2="106.243" class="black" /></g>
<g><title>3 (position.label in template: 22.A)</title><text x="61.63" y="98.99" class="black" >A</text></g>
<g><line x1="63.6733" y1="98.6835" x2="71.6267" y2="98.6835" class="black" /></g>
<g><title>4 (position.label in template: 23.U)</title><text x="54.24" y="101.33" class="black" >U</text></g>
<g><title>5 (position.label in template: 24.Y)</title><text x="50" y="95.21" class="green" >C</text></g>
<g><title>6 (position.label in template: 25.N)</title><text x="54.39" y="89.31" class="green" >U</text></g>
<g><title>7 (position.label in template: 26.G)</title><text x="61.22" y="91.43" class="black" >G</text></g>
<g><line x1="63.2633" y1="91.1235" x2="71.6267" y2="91.1235" class="black" /></g>
<g><title>8 (position.label in template: 27.A)</title><text x="61.63" y="83.87" class="black" >A</text></g>
<g><line x1="63.6733" y1="83.5635" x2="71.6267" y2="83.5635" class="black" /></g>
<g><title>9 (position.label in template: 28.G)</title><text x="61.22" y="76.31" class="black" >G</text></g>
<g><line x1="63.2633" y1="76.0035" x2="71.6267" y2="76.0035" class="black" /></g>
<g><title>10 (position.label in template: 29.C)</title><text x="61.43" y="68.75" class="black" >C</text></g>
<g><line x1="63.4733" y1="68.4435" x2="71.4167" y2="68.4435" class="black" /></g>
<g><title>10 (inserted)</title><text x="54.8141" y="70.6964" class="numbering-label sequential" >10</text></g>
<g><line x1="59.6658" y1="69.269" x2="56.6531" y2="70.1554" class="numbering-line sequential" /></g>
<g><title>11 (position.label in template: 30.C)</title><text x="57.16" y="62.51" class="black" >C</text></g>
<g><title>12 (position.label in template: 31.U)</title><text x="58.1" y="55.01" class="black" >U</text></g>
<g><title>13 (position.label in template: 32.G)</title><text x="63.56" y="50" class="black" >G</text></g>
<g><title>14 (position.label in template: 33.G)</title><text x="71.12" y="50" class="black" >G</text></g>
<g><title>15 (position.label in template: 34.G)</title><text x="76.78" y="55.01" class="black" >G</text></g>
<g><title>16 (position.label in template: 35.A)</title><text x="78.14" y="62.51" class="black" >A</text></g>
<g><title>17 (position.label in template: 36.G)</title><text x="73.46" y="68.75" class="black" >G</text></g>
<g><title>18 (position.label in template: 37.C)</title><text x="73.67" y="76.31" class="black" >C</text></g>
<g><title>19 (position.label in template: 38.U)</title><text x="73.67" y="83.87" class="black" >U</text></g>
<g><title>20 (position.label in template: 39.C)</title><text x="73.67" y="91.43" class="black" >C</text></g>
<g><title>20 (inserted)</title><text x="80.5663" y="91.43" class="numbering-label sequential" >20</text></g>
<g><line x1="75.509" y1="91.43" x2="78.7273" y2="91.43" class="numbering-line sequential" /></g>
<g><title>21 (position.label in template: 40.U)</title><text x="73.67" y="98.99" class="black" >U</text></g>
<g><title>22 (position.label in template: 41.C)</title><text x="73.67" y="106.55" class="black" >C</text></g>
<g><title>23 (position.label in template: 42.U)</title><text x="73.67" y="114.11" class="black" >U</text></g>
<g><title>24 (position.label in template: 62.3')</title><text x="80.67" y="114.11" class="green" >3'</text></g>
<g><line x1="56.6733" y1="113.803" x2="59.5867" y2="113.803" class="gray" /></g>
<g><line x1="61.5193" y1="111.763" x2="61.3307" y2="108.284" class="gray" /></g>
<g><line x1="61.3307" y1="104.203" x2="61.5193" y2="100.724" class="gray" /></g>
<g><line x1="59.682" y1="99.3003" x2="56.188" y2="100.407" class="gray" /></g>
<g><line x1="53.0763" y1="99.3439" x2="51.1637" y2="96.5831" class="gray" /></g>
<g><line x1="51.2198" y1="93.2642" x2="53.1702" y2="90.6428" class="gray" /></g>
<g><line x1="56.3415" y1="89.6092" x2="59.2685" y2="90.5178" class="gray" /></g>
<g><line x1="61.3307" y1="89.0832" x2="61.5193" y2="85.6038" class="gray" /></g>
<g><line x1="61.5193" y1="81.5232" x2="61.3307" y2="78.0438" class="gray" /></g>
<g><line x1="61.2767" y1="73.9609" x2="61.3733" y2="70.4861" class="gray" /></g>
<g><line x1="60.2761" y1="66.7572" x2="58.3139" y2="63.8898" class="gray" /></g>
<g><line x1="57.4141" y1="60.176" x2="57.8459" y2="56.731" class="gray" /></g>
<g><line x1="59.6056" y1="53.322" x2="62.0544" y2="51.075" class="gray" /></g>
<g><line x1="65.6033" y1="49.6935" x2="69.0767" y2="49.6935" class="gray" /></g>
<g><line x1="72.65" y1="51.0478" x2="75.25" y2="53.3492" class="gray" /></g>
<g><line x1="77.1446" y1="56.7141" x2="77.7754" y2="60.1929" class="gray" /></g>
<g><line x1="76.914" y1="63.8382" x2="74.686" y2="66.8088" class="gray" /></g>
<g><line x1="73.5167" y1="70.4861" x2="73.6133" y2="73.9609" class="gray" /></g>
<g><line x1="73.67" y1="78.0468" x2="73.67" y2="81.5202" class="gray" /></g>
<g><line x1="73.67" y1="85.6068" x2="73.67" y2="89.0802" class="gray" /></g>
<g><line x1="73.67" y1="93.1668" x2="73.67" y2="96.6402" class="gray" /></g>
<g><line x1="73.67" y1="100.727" x2="73.67" y2="104.2" class="gray" /></g>
<g><line x1="73.67" y1="108.287" x2="73.67" y2="111.76" class="gray" /></g>
<g><line x1="75.7133" y1="113.803" x2="78.6267" y2="113.803" class="gray" /></g>
</svg>
